<svg xmlns="http://www.w3.org/2000/svg" viewBox="0 0 319.333 117.667"><defs><style>.cls-1{fill:#222221;}.cls-2{fill:#f5d652;}.cls-3{fill:#8a233c;}</style></defs><title>Rityta 1</title><g id="Lager_3" data-name="Lager 3"><path class="cls-1" d="M143.363,49.862a15.075,15.075,0,0,1-20.665,0,13.666,13.666,0,0,1-4.2-10.193,13.666,13.666,0,0,1,4.2-10.194,15.075,15.075,0,0,1,20.665,0,13.671,13.671,0,0,1,4.2,10.194A13.67,13.67,0,0,1,143.363,49.862Zm-2.1-10.174a9.058,9.058,0,0,0-2.375-6.314,7.834,7.834,0,0,0-11.679,0,9.058,9.058,0,0,0-2.375,6.314,8.981,8.981,0,0,0,2.375,6.294,7.87,7.87,0,0,0,11.679,0A8.981,8.981,0,0,0,141.265,39.688Z"/><path class="cls-1" d="M176.418,35.2q0,6.651-5.265,8.591l7.007,9.9h-7.6l-6.137-8.829h-4.276v8.829h-6.174V26.011h10.49q6.453,0,9.2,2.177T176.418,35.2Zm-7.442,3.285a4.178,4.178,0,0,0,1.148-3.265,3.5,3.5,0,0,0-1.187-3.069,7.618,7.618,0,0,0-4.158-.831h-4.632V39.51h4.514Q167.828,39.51,168.976,38.48Z"/><path class="cls-1" d="M190.412,31.533a2.386,2.386,0,0,0-.891,1.94,2.2,2.2,0,0,0,1.089,1.921,19.934,19.934,0,0,0,5.028,1.681,14.17,14.17,0,0,1,6.116,2.91,7.189,7.189,0,0,1,2.178,5.661,7.476,7.476,0,0,1-2.791,6.038A11.131,11.131,0,0,1,193.8,54,17,17,0,0,1,181.96,49.13l3.682-4.513q4.473,3.918,8.274,3.919a4.342,4.342,0,0,0,2.672-.732,2.354,2.354,0,0,0,.97-1.98,2.308,2.308,0,0,0-1.03-1.979,13.452,13.452,0,0,0-4.077-1.485,17.7,17.7,0,0,1-7.066-2.988q-2.238-1.84-2.238-5.78a7.16,7.16,0,0,1,2.832-6.076,11.382,11.382,0,0,1,7.066-2.139,17.01,17.01,0,0,1,5.542.95,14.854,14.854,0,0,1,4.83,2.693l-3.128,4.512a12.189,12.189,0,0,0-7.442-2.731A3.723,3.723,0,0,0,190.412,31.533Z"/><path class="cls-1" d="M229.781,53.683l-2.573-5.978h-11.6l-2.573,5.978h-6.571L218.42,26.011H224.4l11.957,27.672Zm-8.352-19.438-3.484,8.036h6.928Z"/><path class="cls-1" d="M120.086,62.273h6.175V73.635l10.451-11.362h7.641l-11,12.233q1.425,1.98,5.264,7.384t5.741,8.055h-7.206L129.032,79.02l-2.771,3.087v7.838h-6.175Z"/><path class="cls-1" d="M171.272,86.125a15.075,15.075,0,0,1-20.665,0,14.481,14.481,0,0,1,0-20.388,15.078,15.078,0,0,1,20.665,0,14.478,14.478,0,0,1,0,20.388Zm-2.1-10.174a9.056,9.056,0,0,0-2.375-6.314,7.832,7.832,0,0,0-11.679,0,9.554,9.554,0,0,0,0,12.608,7.87,7.87,0,0,0,11.679,0A8.981,8.981,0,0,0,169.174,75.951Z"/><path class="cls-1" d="M206.663,72.526l-7.482,15.123H195.5l-7.442-15.123V89.945h-6.176V62.273h8.352l7.126,15.2,7.166-15.2h8.314V89.945h-6.176Z"/><path class="cls-1" d="M245.577,72.526,238.1,87.649h-3.682l-7.443-15.123V89.945H220.8V62.273h8.352l7.126,15.2,7.165-15.2h8.314V89.945h-6.176Z"/><path class="cls-1" d="M267.033,82.8a5.056,5.056,0,0,0,4.157,1.92,5,5,0,0,0,4.137-1.92,8.218,8.218,0,0,0,1.525-5.245V62.273h6.175V77.752q0,6.02-3.325,9.244a12.837,12.837,0,0,1-17.043-.019q-3.345-3.248-3.345-9.225V62.273h6.176V77.555A8.151,8.151,0,0,0,267.033,82.8Z"/><path class="cls-1" d="M309.986,62.273h6.176V89.945h-6.176L296.8,72.605v17.34h-6.176V62.273h5.78l13.578,17.815Z"/></g><g id="Lager_2" data-name="Lager 2"><path class="cls-2" d="M99.075,1.466v73.5s1.583,23.748-13.853,29.685a36.457,36.457,0,0,1-11.874,3.035s-17.682,2.506-22.694,8.181c-5.013-5.675-22.694-8.181-22.694-8.181a36.448,36.448,0,0,1-11.874-3.035C.65,98.714,2.233,74.966,2.233,74.966V1.466Z"/><path class="cls-3" d="M50.654,95.814A18.409,18.409,0,1,0,32.245,77.405,18.409,18.409,0,0,0,50.654,95.814"/><path class="cls-2" d="M69.363,77.405A18.616,18.616,0,0,0,64.384,64.74c-.14-.151-.275-.308-.417-.458-.037-.038-.071-.079-.109-.117s-.09-.081-.135-.122a18.642,18.642,0,0,0-26.067-.065c-.069.062-.141.122-.206.187-.154.154-.292.322-.441.481-.039.044-.079.087-.118.13a18.6,18.6,0,0,0,0,25.258c.03.034.061.067.091.1.169.181.329.37.5.545s.36.325.539.489h0a18.6,18.6,0,0,0,25.258,0c.179-.164.366-.319.538-.489l.073-.07c.172-.172.325-.36.49-.539h0A18.614,18.614,0,0,0,69.363,77.405ZM50.654,59.3a18.027,18.027,0,0,1,12.5,5.036,13.227,13.227,0,0,0-3.241,1.053,15.091,15.091,0,0,0-18.56.035,13.2,13.2,0,0,0-3.234-1.052A18.031,18.031,0,0,1,50.654,59.3ZM52.5,75.031a11.6,11.6,0,0,1-3.761-.011,13.221,13.221,0,0,0-3.4-6.692A10.44,10.44,0,0,1,55.913,68.3,13.263,13.263,0,0,0,52.5,75.031Zm3.935-6.42a10.593,10.593,0,0,1,3.016,3.016,12.678,12.678,0,0,1-6.325,3.308A12.688,12.688,0,0,1,56.432,68.611Zm-8.326,6.306a12.694,12.694,0,0,1-6.247-3.29,10.61,10.61,0,0,1,2.962-2.983A12.656,12.656,0,0,1,48.106,74.917Zm.1.634a12.6,12.6,0,0,1,.15,1.854,12.761,12.761,0,0,1-.16,1.928,13.222,13.222,0,0,0-6.618,3.386,10.434,10.434,0,0,1-.033-10.573A13.259,13.259,0,0,0,48.205,75.551Zm-.118,4.421a12.649,12.649,0,0,1-3.266,6.2,10.624,10.624,0,0,1-2.929-2.93A12.655,12.655,0,0,1,48.087,79.972Zm.639-.108a11.653,11.653,0,0,1,3.782-.011,13.258,13.258,0,0,0,3.4,6.662,10.44,10.44,0,0,1-10.573-.033A13.234,13.234,0,0,0,48.726,79.864Zm4.416.089a12.654,12.654,0,0,1,6.273,3.284A10.584,10.584,0,0,1,56.432,86.2,12.691,12.691,0,0,1,53.142,79.953Zm-.1-.63a11.6,11.6,0,0,1-.011-3.761,13.263,13.263,0,0,0,6.736-3.416,10.44,10.44,0,0,1-.033,10.573A13.221,13.221,0,0,0,53.039,79.323Zm3.829-11.148a12.818,12.818,0,0,1,2.961-2.1,14.717,14.717,0,0,1,2.157,2.158,12.791,12.791,0,0,1-2.1,2.96A11.225,11.225,0,0,0,56.868,68.175Zm-.527-.321a11.026,11.026,0,0,0-11.429.033,13.346,13.346,0,0,0-2.955-2.172A14.477,14.477,0,0,1,59.3,65.68,13.4,13.4,0,0,0,56.341,67.854Zm-11.952.358a11.221,11.221,0,0,0-2.966,2.979,12.791,12.791,0,0,1-2.1-2.96,14.659,14.659,0,0,1,2.111-2.123A12.751,12.751,0,0,1,44.389,68.212Zm-5.345-.585a12.638,12.638,0,0,1-.858-2.653,12.655,12.655,0,0,1,2.648.859A15.317,15.317,0,0,0,39.044,67.627ZM41.1,71.718a11.026,11.026,0,0,0,.033,11.429A13.35,13.35,0,0,0,38.963,86.1a14.481,14.481,0,0,1-.035-17.346A13.368,13.368,0,0,0,41.1,71.718ZM39.081,87.225a15.265,15.265,0,0,0,1.753,1.752,12.48,12.48,0,0,1-2.6.848A12.537,12.537,0,0,1,39.081,87.225Zm.275-.6a12.736,12.736,0,0,1,2.1-2.958,11.215,11.215,0,0,0,2.93,2.93,12.778,12.778,0,0,1-2.958,2.1A14.759,14.759,0,0,1,39.356,86.627Zm5.556.3a11.026,11.026,0,0,0,11.429.033A13.368,13.368,0,0,0,59.3,89.131,14.481,14.481,0,0,1,41.957,89.1,13.35,13.35,0,0,0,44.912,86.923Zm11.956-.288a11.207,11.207,0,0,0,2.979-2.966,12.722,12.722,0,0,1,2.1,2.957,14.652,14.652,0,0,1-2.122,2.111A12.758,12.758,0,0,1,56.868,86.635Zm5.358.589a12.548,12.548,0,0,1,.859,2.649,12.555,12.555,0,0,1-2.652-.859A15.386,15.386,0,0,0,62.226,87.224Zm-2.054-4.078a11.024,11.024,0,0,0,.033-11.428,13.4,13.4,0,0,0,2.174-2.962A14.48,14.48,0,0,1,62.344,86.1,13.393,13.393,0,0,0,60.172,83.146Zm2.091-15.519A15.371,15.371,0,0,0,60.432,65.8a12.645,12.645,0,0,1,2.7-.87A12.553,12.553,0,0,1,62.263,67.627Zm-24.644,22.3-.013,0a18.025,18.025,0,0,1-.025-25.023,13.213,13.213,0,0,0,1.053,3.241,15.091,15.091,0,0,0,.035,18.56A13.234,13.234,0,0,0,37.619,89.929Zm13.035,5.585a18.033,18.033,0,0,1-12.526-5.061l0-.013a13.234,13.234,0,0,0,3.22-1.05,15.09,15.09,0,0,0,18.56.034,13.237,13.237,0,0,0,3.242,1.054A18.036,18.036,0,0,1,50.654,95.514Zm13.037-5.571a13.211,13.211,0,0,0-1.053-3.235,15.094,15.094,0,0,0,.035-18.559,13.258,13.258,0,0,0,1.054-3.241,18.028,18.028,0,0,1-.036,25.035Z"/><path class="cls-3" d="M29.089,57.154A18.409,18.409,0,1,0,10.68,38.745,18.409,18.409,0,0,0,29.089,57.154"/><path class="cls-2" d="M47.8,38.745A18.614,18.614,0,0,0,42.819,26.08c-.14-.152-.274-.308-.416-.458-.038-.038-.072-.079-.109-.117s-.09-.081-.135-.122a18.643,18.643,0,0,0-26.067-.066c-.069.063-.141.122-.207.188-.154.154-.292.322-.44.481-.039.044-.079.087-.118.13a18.594,18.594,0,0,0,0,25.258c.03.033.061.066.091.1.168.181.328.37.5.544s.36.326.538.49h0a18.6,18.6,0,0,0,25.259,0c.178-.164.366-.319.538-.49.024-.023.049-.045.073-.069.171-.172.325-.361.49-.539h0A18.619,18.619,0,0,0,47.8,38.745ZM29.089,20.637a18.031,18.031,0,0,1,12.5,5.035,13.258,13.258,0,0,0-3.241,1.054,15.091,15.091,0,0,0-18.56.035,13.2,13.2,0,0,0-3.234-1.053A18.034,18.034,0,0,1,29.089,20.637Zm1.844,15.734a11.674,11.674,0,0,1-3.761-.011,13.23,13.23,0,0,0-3.4-6.692,10.442,10.442,0,0,1,10.574-.033A13.255,13.255,0,0,0,30.933,36.371Zm3.935-6.42a10.593,10.593,0,0,1,3.016,3.016,12.69,12.69,0,0,1-6.325,3.308A12.688,12.688,0,0,1,34.868,29.951Zm-8.326,6.305A12.685,12.685,0,0,1,20.3,32.967a10.61,10.61,0,0,1,2.962-2.983A12.653,12.653,0,0,1,26.542,36.256Zm.1.635a12.6,12.6,0,0,1,.15,1.854,12.761,12.761,0,0,1-.16,1.928,13.222,13.222,0,0,0-6.618,3.386,10.435,10.435,0,0,1-.033-10.574A13.256,13.256,0,0,0,26.641,36.891Zm-.118,4.42a12.648,12.648,0,0,1-3.266,6.2,10.593,10.593,0,0,1-2.929-2.929A12.656,12.656,0,0,1,26.523,41.311Zm.639-.107a11.647,11.647,0,0,1,3.781-.011,13.267,13.267,0,0,0,3.406,6.662,10.442,10.442,0,0,1-10.574-.033A13.228,13.228,0,0,0,27.162,41.2Zm4.416.089a12.646,12.646,0,0,1,6.273,3.284,10.61,10.61,0,0,1-2.983,2.962A12.7,12.7,0,0,1,31.578,41.293Zm-.1-.631a12.745,12.745,0,0,1-.158-1.917,12.6,12.6,0,0,1,.148-1.844A13.256,13.256,0,0,0,38.2,33.485a10.435,10.435,0,0,1-.033,10.574A13.23,13.23,0,0,0,31.474,40.662ZM35.3,29.515a12.761,12.761,0,0,1,2.96-2.1,14.675,14.675,0,0,1,2.158,2.158,12.833,12.833,0,0,1-2.1,2.96A11.225,11.225,0,0,0,35.3,29.515Zm-.527-.321a11.026,11.026,0,0,0-11.429.033,13.338,13.338,0,0,0-2.955-2.172,14.477,14.477,0,0,1,17.346-.035A13.4,13.4,0,0,0,34.777,29.194Zm-11.952.358a11.221,11.221,0,0,0-2.966,2.979,12.818,12.818,0,0,1-2.1-2.961,14.652,14.652,0,0,1,2.111-2.122A12.722,12.722,0,0,1,22.825,29.552Zm-5.345-.586a12.611,12.611,0,0,1-.858-2.652,12.539,12.539,0,0,1,2.648.859A15.386,15.386,0,0,0,17.48,28.966Zm2.058,4.092a11.027,11.027,0,0,0,.034,11.428A13.348,13.348,0,0,0,17.4,47.442,14.481,14.481,0,0,1,17.364,30.1,13.419,13.419,0,0,0,19.538,33.058ZM17.517,48.565a15.346,15.346,0,0,0,1.753,1.752,12.619,12.619,0,0,1-2.6.848A12.537,12.537,0,0,1,17.517,48.565Zm.275-.6a12.722,12.722,0,0,1,2.1-2.957,11.207,11.207,0,0,0,2.929,2.929,12.755,12.755,0,0,1-2.957,2.1A14.713,14.713,0,0,1,17.792,47.966Zm5.556.3a11.026,11.026,0,0,0,11.429.033,13.4,13.4,0,0,0,2.962,2.174,14.477,14.477,0,0,1-17.346-.035A13.369,13.369,0,0,0,23.348,48.263ZM35.3,47.975a11.221,11.221,0,0,0,2.979-2.966,12.751,12.751,0,0,1,2.1,2.957,14.659,14.659,0,0,1-2.123,2.111A12.812,12.812,0,0,1,35.3,47.975Zm5.357.589a12.541,12.541,0,0,1,.86,2.648,12.638,12.638,0,0,1-2.653-.858A15.232,15.232,0,0,0,40.661,48.564Zm-2.054-4.078a11.024,11.024,0,0,0,.033-11.428A13.368,13.368,0,0,0,40.815,30.1a14.484,14.484,0,0,1-.035,17.345A13.374,13.374,0,0,0,38.607,44.486ZM40.7,28.967a15.371,15.371,0,0,0-1.831-1.831,12.645,12.645,0,0,1,2.7-.87A12.645,12.645,0,0,1,40.7,28.967Zm-24.644,22.3-.013,0a18.026,18.026,0,0,1-.026-25.023,13.272,13.272,0,0,0,1.054,3.241,15.09,15.09,0,0,0,.035,18.559A13.2,13.2,0,0,0,16.055,51.269Zm13.034,5.585a18.031,18.031,0,0,1-12.525-5.062v-.013a13.156,13.156,0,0,0,3.221-1.05,15.091,15.091,0,0,0,18.56.035,13.258,13.258,0,0,0,3.241,1.054A18.032,18.032,0,0,1,29.089,56.854Zm13.037-5.572a13.2,13.2,0,0,0-1.052-3.234,15.094,15.094,0,0,0,.035-18.559,13.258,13.258,0,0,0,1.054-3.241,18.026,18.026,0,0,1-.037,25.034Z"/><path class="cls-3" d="M72.218,57.154A18.409,18.409,0,1,0,53.809,38.745,18.409,18.409,0,0,0,72.218,57.154"/><path class="cls-2" d="M90.927,38.745A18.614,18.614,0,0,0,85.948,26.08c-.14-.152-.275-.308-.417-.458-.037-.038-.071-.079-.109-.117s-.09-.081-.135-.122a18.643,18.643,0,0,0-26.067-.066c-.069.063-.14.122-.206.188-.154.154-.292.322-.441.481-.038.044-.078.087-.118.13a18.6,18.6,0,0,0,0,25.258c.031.033.061.066.091.1.169.181.329.37.505.544s.359.326.538.49h0a18.6,18.6,0,0,0,25.258,0c.179-.164.366-.319.538-.49.024-.023.05-.045.073-.069.172-.172.326-.361.49-.539h0A18.616,18.616,0,0,0,90.927,38.745ZM72.218,20.637a18.035,18.035,0,0,1,12.5,5.035,13.258,13.258,0,0,0-3.241,1.054,15.091,15.091,0,0,0-18.56.035,13.217,13.217,0,0,0-3.234-1.053A18.033,18.033,0,0,1,72.218,20.637Zm1.843,15.734a11.668,11.668,0,0,1-3.76-.011,13.23,13.23,0,0,0-3.4-6.692,10.442,10.442,0,0,1,10.574-.033A13.264,13.264,0,0,0,74.061,36.371ZM78,29.951a10.6,10.6,0,0,1,3.015,3.016,12.687,12.687,0,0,1-6.324,3.308A12.688,12.688,0,0,1,78,29.951ZM69.67,36.256a12.682,12.682,0,0,1-6.246-3.289,10.594,10.594,0,0,1,2.961-2.983A12.645,12.645,0,0,1,69.67,36.256Zm.1.635a11.653,11.653,0,0,1-.011,3.782,13.227,13.227,0,0,0-6.618,3.386,10.442,10.442,0,0,1-.033-10.574A13.259,13.259,0,0,0,69.77,36.891Zm-.118,4.42a12.656,12.656,0,0,1-3.266,6.2,10.6,10.6,0,0,1-2.93-2.929A12.664,12.664,0,0,1,69.652,41.311Zm.638-.107a11.653,11.653,0,0,1,3.782-.011,13.259,13.259,0,0,0,3.406,6.662A10.442,10.442,0,0,1,66.9,47.822,13.227,13.227,0,0,0,70.29,41.2Zm4.417.089a12.65,12.65,0,0,1,6.273,3.284A10.623,10.623,0,0,1,78,47.539,12.688,12.688,0,0,1,74.707,41.293Zm-.1-.631a11.674,11.674,0,0,1-.011-3.761,13.255,13.255,0,0,0,6.736-3.416A10.442,10.442,0,0,1,81.3,44.059,13.23,13.23,0,0,0,74.6,40.662Zm3.83-11.147a12.761,12.761,0,0,1,2.96-2.1,14.62,14.62,0,0,1,2.157,2.158,12.773,12.773,0,0,1-2.1,2.96A11.222,11.222,0,0,0,78.433,29.515Zm-.528-.321a11.024,11.024,0,0,0-11.428.033,13.344,13.344,0,0,0-2.956-2.172,14.477,14.477,0,0,1,17.346-.035A13.443,13.443,0,0,0,77.905,29.194Zm-11.951.358a11.207,11.207,0,0,0-2.966,2.979,12.792,12.792,0,0,1-2.1-2.961A14.754,14.754,0,0,1,63,27.448,12.749,12.749,0,0,1,65.954,29.552Zm-5.345-.586a12.555,12.555,0,0,1-.859-2.652,12.539,12.539,0,0,1,2.648.859A15.377,15.377,0,0,0,60.609,28.966Zm2.058,4.092A11.024,11.024,0,0,0,62.7,44.486a13.344,13.344,0,0,0-2.172,2.956A14.479,14.479,0,0,1,60.492,30.1,13.392,13.392,0,0,0,62.667,33.058ZM60.646,48.565A15.418,15.418,0,0,0,62.4,50.317a12.6,12.6,0,0,1-2.6.848A12.6,12.6,0,0,1,60.646,48.565Zm.274-.6a12.751,12.751,0,0,1,2.1-2.957,11.226,11.226,0,0,0,2.93,2.929A12.74,12.74,0,0,1,63,50.043,14.766,14.766,0,0,1,60.92,47.966Zm5.557.3a11.024,11.024,0,0,0,11.428.033,13.443,13.443,0,0,0,2.962,2.174,14.477,14.477,0,0,1-17.346-.035A13.375,13.375,0,0,0,66.477,48.263Zm11.956-.288a11.251,11.251,0,0,0,2.979-2.966,12.747,12.747,0,0,1,2.1,2.957,14.652,14.652,0,0,1-2.122,2.111A12.791,12.791,0,0,1,78.433,47.975Zm5.357.589a12.539,12.539,0,0,1,.859,2.648A12.648,12.648,0,0,1,82,50.354,15.386,15.386,0,0,0,83.79,48.564Zm-2.054-4.078a11.024,11.024,0,0,0,.033-11.428A13.4,13.4,0,0,0,83.944,30.1a14.482,14.482,0,0,1-.036,17.345A13.369,13.369,0,0,0,81.736,44.486Zm2.091-15.519A15.363,15.363,0,0,0,82,27.136a12.609,12.609,0,0,1,2.7-.87A12.647,12.647,0,0,1,83.827,28.967Zm-24.643,22.3-.013,0a18.026,18.026,0,0,1-.026-25.023A13.187,13.187,0,0,0,60.2,29.489a15.09,15.09,0,0,0,.035,18.559A13.156,13.156,0,0,0,59.184,51.269Zm13.034,5.585a18.034,18.034,0,0,1-12.526-5.062l0-.013a13.156,13.156,0,0,0,3.221-1.05,15.091,15.091,0,0,0,18.56.035,13.258,13.258,0,0,0,3.241,1.054A18.032,18.032,0,0,1,72.218,56.854Zm13.037-5.572A13.161,13.161,0,0,0,84.2,48.048a15.094,15.094,0,0,0,.035-18.559,13.173,13.173,0,0,0,1.054-3.241,18.027,18.027,0,0,1-.036,25.034Z"/></g></svg>