<?xml version="1.0" encoding="utf-8"?>
<!-- Generator: Adobe Illustrator 21.0.0, SVG Export Plug-In . SVG Version: 6.00 Build 0)  -->
<svg version="1.1" id="Lager_1" xmlns="http://www.w3.org/2000/svg" xmlns:xlink="http://www.w3.org/1999/xlink" x="0px" y="0px"
	 viewBox="0 0 198 22" style="enable-background:new 0 0 198 22;" xml:space="preserve">
<style type="text/css">
	.st0{fill:#FFFFFF;}
</style>
<g>
	<path class="st0" d="M11.5,0.2c2.5,0,4.3,1.7,4.3,4.3v5.5c0,2.5-1.7,4.3-4.3,4.3H4.8v7.6H0.4V0.2H11.5z M10.4,10.1c0.7,0,1-0.4,1-1
		V5.3c0-0.7-0.4-1-1-1H4.8v5.8H10.4z"/>
	<path class="st0" d="M31.1,21.8l-3.5-8h-3.5v8h-4.3V0.2h11c2.5,0,4.3,1.7,4.3,4.3v5.1c0,2-1.1,3.6-2.9,4.1l3.6,8.2H31.1z M30.8,5.3
		c0-0.7-0.4-1-1-1h-5.6v5.5h5.6c0.7,0,1-0.4,1-1V5.3z"/>
	<path class="st0" d="M50.9,0.1c2.5,0,4.3,1.7,4.3,4.3v13.3c0,2.5-1.7,4.3-4.3,4.3h-7.2c-2.5,0-4.3-1.7-4.3-4.3V4.4
		c0-2.5,1.7-4.3,4.3-4.3H50.9z M50.8,5.2c0-0.7-0.4-1-1-1h-5.1c-0.7,0-1,0.4-1,1v11.6c0,0.7,0.4,1,1,1h5.1c0.7,0,1-0.4,1-1V5.2z"/>
	<path class="st0" d="M60,0.2h14.1v4.1h-9.8v4.6h7.9V13h-7.9v8.8H60V0.2z"/>
	<path class="st0" d="M78,0.2h4.3v21.6H78V0.2z"/>
	<path class="st0" d="M92,0.2v17.5h9.1v4.1H87.6V0.2H92z"/>
	<path class="st0" d="M110.5,4.2v17.6h-4.3V4.2h-5.6v-4h15.6v4H110.5z"/>
	<path class="st0" d="M134,0.2v4.1h-9.8v4.4h7.9v4.1h-7.9v4.9h9.8v4.1h-14.1V0.2H134z"/>
	<path class="st0" d="M141,21.8h-4.7l6.5-11.1l-6.3-10.5h5l4,6.8l4-6.8h4.7L147.9,11l6.4,10.8h-5l-4.2-7.1L141,21.8z"/>
	<path class="st0" d="M166,4.2v17.6h-4.3V4.2H156v-4h15.6v4H166z"/>
	<path class="st0" d="M175.3,0.2h4.3v21.6h-4.3V0.2z"/>
	<path class="st0" d="M189.3,0.2v17.5h9.1v4.1H185V0.2H189.3z"/>
</g>
</svg>
