<?xml version="1.0" encoding="UTF-8" standalone="no"?>
<!DOCTYPE svg PUBLIC "-//W3C//DTD SVG 1.1//EN" "http://www.w3.org/Graphics/SVG/1.1/DTD/svg11.dtd">
<svg width="100%" height="100%" viewBox="0 0 1000 1000" version="1.1" xmlns="http://www.w3.org/2000/svg" xmlns:xlink="http://www.w3.org/1999/xlink" xml:space="preserve" xmlns:serif="http://www.serif.com/" style="fill-rule:evenodd;clip-rule:evenodd;stroke-linecap:round;stroke-miterlimit:1;">
    <path id="Kontur" d="M500.474,176.47C500.474,176.47 444.657,175.702 406.44,196.971L494.402,40.544L464.501,21.744L361.849,204.389C361.849,204.389 315.183,209.392 269.462,189.448L223.834,271.194C223.834,271.194 247.923,283.117 247.234,313.289L247.934,407.514L79.311,707.682C79.311,707.682 73.398,717.856 78.833,730.305C85.697,746.028 171.768,964.123 171.768,964.123C171.768,964.123 175.178,971.969 183.193,965.973C190.407,960.576 201.067,947.846 216.043,925.114C216.043,925.114 312.346,969.471 500,971.372C687.654,969.471 783.957,925.114 783.957,925.114C798.933,947.846 809.593,960.576 816.807,965.973C824.822,971.969 828.232,964.123 828.232,964.123C828.232,964.123 914.303,746.028 921.167,730.305C926.602,717.856 920.689,707.682 920.689,707.682L752.066,407.514L752.766,313.289C752.077,283.117 776.166,271.194 776.166,271.194L730.538,189.448C684.817,209.392 638.151,204.389 638.151,204.389L535.499,21.744L505.598,40.544L593.56,196.971C555.343,175.702 500.474,176.47 500.474,176.47Z" style="fill:rgb(180,0,0);stroke:black;stroke-width:1px;stroke-linejoin:round;stroke-miterlimit:1.5;"/>
    <path id="Vit-Sköld" serif:id="Vit Sköld" d="M500,720.187C500,720.187 504.522,709.999 524.805,705.163C552.938,698.456 580.862,709.46 656.482,701.628C743.56,692.61 741.065,652.043 741.065,652.043C741.065,652.043 742.855,321.234 743.222,307.096C743.866,282.259 759.35,267.326 759.35,267.326L726.001,206.92C692.749,215.75 651.074,217.893 620.314,213.021C608.063,211.08 596.274,207.311 588.609,203.761C581.064,200.267 576.766,198.288 565.64,194.175C545.581,186.761 530.232,181.18 500,180.761C469.768,181.18 454.419,186.761 434.36,194.175C423.234,198.288 418.936,200.267 411.391,203.761C403.726,207.311 391.937,211.08 379.686,213.021C348.926,217.893 307.251,215.75 273.999,206.92L240.65,267.326C240.65,267.326 256.134,282.259 256.778,307.096C257.145,321.234 258.935,652.043 258.935,652.043C258.935,652.043 256.44,692.61 343.518,701.628C419.138,709.46 447.062,698.456 475.195,705.163C495.478,709.999 500,720.187 500,720.187" style="fill:rgb(253,252,252);stroke:black;stroke-width:0.83px;"/>
    <path id="Röd-Halv-Sköld" serif:id="Röd Halv Sköld" d="M500,676.563C494.154,669.226 481.482,661.413 472.484,660.32C440.339,656.414 408.456,656.5 377.1,651.616C368.527,650.175 360.844,647.18 355.213,643.925C348.765,640.197 345.857,636.276 344.637,633.312C343.874,631.458 343.092,628.313 343.003,625.004L343.003,386.012L352.006,386.033L352.013,624.948C352.017,627.039 352.635,629.314 353.936,631.442C355.105,633.355 357.855,635.353 359.634,636.531C363.947,639.385 369.452,641.516 377.538,643.757C404.582,649.44 444.031,649.052 473.663,652.526C487.322,655.007 493.035,659.486 500,665.11C506.965,659.486 512.678,655.007 526.337,652.526C555.969,649.052 595.418,649.44 622.462,643.757C630.548,641.516 636.053,639.385 640.366,636.531C642.145,635.353 644.895,633.355 646.064,631.442C647.365,629.314 647.983,627.039 647.987,624.948L647.994,386.033L656.997,386.012L656.997,625.004C656.908,628.313 656.126,631.458 655.363,633.312C654.143,636.276 651.235,640.197 644.787,643.925C639.156,647.18 631.473,650.175 622.9,651.616C591.544,656.5 559.661,656.414 527.516,660.32C518.518,661.413 505.846,669.226 500,676.563" style="fill:rgb(180,1,0);stroke:black;stroke-width:0.83px;"/>
    <path id="Vit-Nere" serif:id="Vit Nere" d="M499.912,962.44C329.694,961.481 221.49,916.087 221.49,916.087C221.77,916.09 226.2,906.597 229.239,897.057C232.449,886.98 230.556,878.683 228.465,874.657C218.966,856.366 168.696,758.463 168.696,758.463C168.696,758.463 193.564,725.191 201.87,714.137C205.239,709.653 207.853,708.078 215.364,712.735C308.928,770.746 447.59,770.632 500,770.241C552.41,770.632 691.072,770.746 784.636,712.735C792.147,708.078 794.761,709.653 798.13,714.137C806.436,725.191 831.304,758.463 831.304,758.463C831.304,758.463 781.034,856.366 771.535,874.657C769.444,878.683 767.551,886.98 770.761,897.057C773.8,906.597 778.23,916.09 778.51,916.087C778.51,916.087 670.306,961.481 500.088,962.44" style="fill:white;stroke:black;stroke-width:0.83px;"/>
    <path id="Y-Hockey" serif:id="Y Hockey" d="M708.681,783.204L760.492,839.246C760.895,846.654 761.987,871.404 758.316,881.506C753.766,894.024 744.203,891.318 744.203,891.318L742.151,894.746L761.899,908.484L764.819,905.118C764.819,905.118 760.603,901.236 767.087,894.971C768.805,893.311 769.861,893.687 769.597,892.159C769.461,891.371 769.105,889.466 769.047,887.277C768.984,884.917 769.222,882.221 769.684,880.041C769.854,879.243 770.035,878.51 770.245,877.885C771.266,874.852 772.345,873.045 773.844,870.262C774.584,868.887 775.325,867.189 776.412,865.153C776.997,864.06 777.43,863.254 777.753,862.598L786.106,761.818C787.152,757.55 790.09,754.718 796.003,753.56L793.175,743.79L751.068,756.134L754.193,764.603C760.07,761.409 765.496,762.683 765.25,767.12L762.62,805.198L757.516,806.725L734.143,776.311C731.728,773.587 733.934,770.686 740.859,768.887L737.324,760.404L692.785,773.483L697.38,783.027C701.18,780.494 704.951,780.207 708.681,783.204Z" style="fill:rgb(177,4,3);stroke:black;stroke-width:0.83px;"/>
    <g id="E-Hockey" serif:id="E Hockey" transform="matrix(0.999617,-0.0276716,0.029053,1.04952,-27.228,-26.413)">
        <path d="M619.053,810.682L632.857,913.194C633.168,920.672 629.135,918.55 626.066,919.018L627.059,927.068L715.9,915.645C718.782,903.188 720.066,889.542 718.8,874L704.975,875.867C694.671,900.459 676.14,906.08 662.852,903.261L655.84,852.087L664.511,850.819C666.881,850.689 674.498,852.146 676.477,854.742C677.419,854.562 679.969,854.057 679.851,852.944C679.121,846.095 674.596,835.265 672.669,828.994C672.311,827.83 669.93,828.009 668.911,828.511C667.197,831.366 663.472,833.447 661.774,833.788L653.565,835.071L649.424,804.12L676.503,800.72C682.288,799.813 692.329,805.419 693.567,811.26C694.343,811.127 698.867,810.391 698.522,809.287C696.573,803.049 691.093,789.433 689.415,782.029C689.272,781.399 687.881,781.77 687.183,781.843C685.538,785.601 678.329,787.517 674.877,787.913L607.534,794.793L609.082,806.178C615.246,804.18 617.638,806.828 619.053,810.682Z" style="fill:rgb(177,1,0);stroke:black;stroke-width:0.81px;"/>
    </g>
    <g id="K-Hockey" serif:id="K Hockey" transform="matrix(0.922637,-0.029047,0.032567,1.03445,19.875,-17.2248)">
        <path d="M503.557,816.002C503.529,823.092 504.533,918.384 504.533,918.384C504.432,921.001 501.063,922.883 498.187,922.469C496.68,926.202 496.828,931.192 497.871,932.783L550.214,933.24L550.064,924.299C550.064,924.299 537.1,925.237 537.281,918.721C537.462,912.206 537.418,872.462 537.418,872.462C537.418,872.462 542.832,871.882 546.556,873.132C550.279,874.381 554.737,880.616 557.235,885.585C562.971,896.995 563.364,908.053 563.084,915.344C562.788,923.081 561.782,923.906 561.782,923.906C561.692,924.482 559.524,925.559 556.573,924.37L556.639,933.222L607.658,933.324L607.574,924.435C607.574,924.435 601.313,925.166 600.466,921.633C595.789,902.141 555.827,857.929 555.827,857.929C560.526,850.308 568.226,839.607 573.044,829.587C576.67,822.046 579.786,813.205 583.723,810.752C587.785,808.221 592.564,809.47 592.564,809.47L592.491,797.779L553.054,798.203L553.203,809.528C553.203,809.528 559.797,808.947 560.964,811.179C563.187,815.435 549.145,842.879 544.115,843.099C539.085,843.32 538.5,842.938 538.5,842.938C538.5,842.938 538.432,816.25 538.355,812.663C538.278,809.076 545.761,809.717 545.761,809.717L545.727,798.137L496.63,798.104L496.65,809.542C496.65,809.542 503.585,808.913 503.557,816.002Z" style="fill:rgb(179,1,0);stroke:black;stroke-width:0.85px;"/>
    </g>
    <g id="C-Hockey" serif:id="C Hockey" transform="matrix(1,0,0,1,2.15752,0)">
        <path d="M430.505,859.803C429.4,878.03 432.407,897.103 437.139,903.511C445.479,914.805 455.133,913.636 463.272,907.756C473.459,900.397 475.009,882.541 475.009,882.541C475.009,882.541 480.212,882.453 483.105,882.65C486.48,882.879 494.676,883.603 494.676,883.603L493.759,904.622C493.604,904.779 489.492,902.642 485.744,910.691C480.842,921.217 468.575,932.378 451.453,934.035C434.331,935.692 424.219,931.381 415.904,921.464C407.689,911.666 400.994,898.875 399.561,873.159C398.481,853.787 401.491,828.773 413.941,811.824C425.974,795.445 444.632,788.872 458.367,792.991C465.095,795.01 488.252,792.074 488.252,792.074L492.172,837.058C492.172,837.058 472.519,845.785 469.973,826.126C468.217,812.563 455.299,802.731 442.662,816.163C433.593,825.804 431.61,841.577 430.505,859.803Z" style="fill:rgb(179,1,0);stroke:black;stroke-width:0.83px;"/>
    </g>
    <g id="O-Hockey" serif:id="O Hockey" transform="matrix(0.97689,0.120968,-0.122375,0.98825,56.7288,515.565)">
        <path d="M330.525,225.288C301.158,224.312 284.449,257.474 282.764,295.49C280.815,339.445 290.381,372.941 331.851,371.987C371.096,371.084 383.046,336.674 380.396,293.987C378.195,258.534 367.092,226.504 330.525,225.288Z" style="fill:rgb(179,1,0);"/>
        <clipPath id="_clip1">
            <path d="M330.525,225.288C301.158,224.312 284.449,257.474 282.764,295.49C280.815,339.445 290.381,372.941 331.851,371.987C371.096,371.084 383.046,336.674 380.396,293.987C378.195,258.534 367.092,226.504 330.525,225.288Z"/>
        </clipPath>
        <g clip-path="url(#_clip1)">
            <g id="O-Hockey-In" serif:id="O Hockey In" transform="matrix(1.17221,0.1722,-0.150138,0.998669,-11.6303,-56.808)">
                <path d="M328.522,248.524C317.696,249.858 313.58,274.565 316.083,296.787C318.192,315.506 320.303,324.686 323.041,332.616C326.353,342.206 330.109,345.13 334.46,344.673C340.19,344.072 350.536,338.049 345.386,292.383C342.518,266.95 337.462,247.422 328.522,248.524Z" style="fill:white;stroke:black;stroke-width:0.77px;"/>
            </g>
        </g>
        <path d="M330.525,225.288C301.158,224.312 284.449,257.474 282.764,295.49C280.815,339.445 290.381,372.941 331.851,371.987C371.096,371.084 383.046,336.674 380.396,293.987C378.195,258.534 367.092,226.504 330.525,225.288Z" style="fill:none;stroke:black;stroke-width:0.84px;"/>
    </g>
    <g id="H-Hockey" serif:id="H Hockey" transform="matrix(0.999998,-0.00209511,0.00211433,1.00917,-0.281644,-11.4376)">
        <path d="M232.176,802.542L254.934,810.08L267.245,773.024C267.237,770.491 265.765,768.391 261.857,767.011L264.96,757.513L310.517,772.547L307.407,782.046C304.557,780.695 302.04,780.879 299.892,782.749L264.98,888.066C265.851,890.306 268.022,891.864 270.737,893.137L266.956,904.901L229.272,892.17C229.336,887.482 228.744,882.698 226.629,877.99C228.79,879.32 231.133,880.662 232.711,877.415L249.276,827.352L226.492,820.261L214.673,854.922L192.932,812.818L212.138,754.828C212.124,752.014 210.925,749.724 206.704,748.77L209.843,739.339L255.569,754.388L252.342,763.862C248.851,762.936 245.997,763.122 244.405,765.506L232.176,802.542Z" style="fill:rgb(177,1,0);stroke:black;stroke-width:0.83px;"/>
    </g>
    <g id="A-Orsa" serif:id="A Orsa" transform="matrix(1,0,0,1,-0.0926651,-0.079634)">
        <path d="M648.247,224.33L675.235,224.142C675.235,224.142 705.938,328.536 715.643,342.488C720.676,349.725 722.393,347.254 725.226,351.755C729.197,358.062 724.261,368.398 724.261,368.398L663.359,368.548C663.359,368.548 655.988,362.225 664.137,350.806C668.005,345.385 669.994,344.736 671.943,342.14C673.496,340.071 670.864,333.016 670.864,333.016L634.618,333.191C634.618,333.191 628.182,347.305 635.964,350.744C646.816,355.539 639.963,368.288 635.066,368.503L597.753,368.487C597.753,368.487 594.629,357.578 599.154,352.33C603.678,347.081 607.152,349.401 610.772,341.257C614.391,333.112 648.247,224.33 648.247,224.33Z" style="fill:rgb(176,1,0);"/>
        <clipPath id="_clip2">
            <path d="M648.247,224.33L675.235,224.142C675.235,224.142 705.938,328.536 715.643,342.488C720.676,349.725 722.393,347.254 725.226,351.755C729.197,358.062 724.261,368.398 724.261,368.398L663.359,368.548C663.359,368.548 655.988,362.225 664.137,350.806C668.005,345.385 669.994,344.736 671.943,342.14C673.496,340.071 670.864,333.016 670.864,333.016L634.618,333.191C634.618,333.191 628.182,347.305 635.964,350.744C646.816,355.539 639.963,368.288 635.066,368.503L597.753,368.487C597.753,368.487 594.629,357.578 599.154,352.33C603.678,347.081 607.152,349.401 610.772,341.257C614.391,333.112 648.247,224.33 648.247,224.33Z"/>
        </clipPath>
        <g clip-path="url(#_clip2)">
            <path id="A-Orsa-In" serif:id="A Orsa In" d="M654.679,275.1C650.938,268.63 641.438,308.408 641.438,308.408L664.632,308.399C664.632,308.399 660.655,285.436 654.679,275.1Z" style="fill:white;stroke:black;stroke-width:0.83px;"/>
        </g>
        <path d="M648.247,224.33L675.235,224.142C675.235,224.142 705.938,328.536 715.643,342.488C720.676,349.725 722.393,347.254 725.226,351.755C729.197,358.062 724.261,368.398 724.261,368.398L663.359,368.548C663.359,368.548 655.988,362.225 664.137,350.806C668.005,345.385 669.994,344.736 671.943,342.14C673.496,340.071 670.864,333.016 670.864,333.016L634.618,333.191C634.618,333.191 628.182,347.305 635.964,350.744C646.816,355.539 639.963,368.288 635.066,368.503L597.753,368.487C597.753,368.487 594.629,357.578 599.154,352.33C603.678,347.081 607.152,349.401 610.772,341.257C614.391,333.112 648.247,224.33 648.247,224.33Z" style="fill:none;stroke:black;stroke-width:0.83px;"/>
    </g>
    <g id="S-Orsa" serif:id="S Orsa" transform="matrix(1.07259,0,0,1,-45.2729,0)">
        <path d="M592.37,224.069L592.669,269.087C592.669,269.087 591.224,278.187 581.722,266.649C572.221,255.111 569.722,249.022 560.457,247.871C550.119,246.588 547.613,253.223 548.24,258.957C549.824,273.436 577.576,271.5 593.713,296.059C602.136,308.878 601.631,335.424 593.939,348.545C586.247,361.667 574.883,369.138 552.533,368.868C529.052,368.586 519.593,369.857 516.652,366.916L516.877,324.228C516.877,324.228 516.171,311.25 526.018,322.235C534.987,332.24 532.297,338.649 544.084,344.734C549.011,347.278 557.41,349.051 563.996,343.122C569.991,337.726 569.104,321.127 560.698,313.977C555.213,309.312 543.096,300.052 536.82,293.883C528.707,285.908 520.046,274.612 519.961,258.448C519.917,250.169 524.053,242.477 526.426,239.734C532.048,233.236 537.829,228.679 545.737,226.124C553.931,223.476 566.163,225.03 572.601,226.374C578.367,227.577 577.044,225.534 582.931,223.433C588.296,221.518 592.37,224.069 592.37,224.069Z" style="fill:rgb(176,1,0);stroke:black;stroke-width:0.8px;"/>
    </g>
    <g id="R-Orsa" serif:id="R Orsa" transform="matrix(0.903024,0,0,1,33.664,-0.47972)">
        <path d="M401.403,343.323C401.403,336.536 401.314,251.328 401.314,251.328C401.314,251.328 402.159,244.334 391.729,244.232L391.738,225.822L458.814,225.915C458.814,225.915 468.854,225.901 476.202,230.125C500.118,243.872 494.892,274.793 493.453,281.31C490.507,294.647 478.367,298.796 478.367,298.796C478.367,298.796 503.09,343.674 508.902,345.262C522.826,349.068 518.481,367.947 506.717,368.603L469.619,368.619C463.391,349.909 446.929,303.422 446.929,303.422C446.929,303.422 444.74,303.398 439.633,303.392L439.762,342.152C439.762,342.152 439.356,345.231 446.453,348.119C453.831,351.122 456.683,352.265 456.313,360.972C455.987,368.661 449.854,368.768 449.854,368.768C435.678,368.665 414.358,368.861 393.569,368.483C393.569,368.483 388.85,356.325 394.152,351.464C399.455,346.604 401.403,350.11 401.403,343.323Z" style="fill:rgb(176,1,0);"/>
        <clipPath id="_clip3">
            <path d="M401.403,343.323C401.403,336.536 401.314,251.328 401.314,251.328C401.314,251.328 402.159,244.334 391.729,244.232L391.738,225.822L458.814,225.915C458.814,225.915 468.854,225.901 476.202,230.125C500.118,243.872 494.892,274.793 493.453,281.31C490.507,294.647 478.367,298.796 478.367,298.796C478.367,298.796 503.09,343.674 508.902,345.262C522.826,349.068 518.481,367.947 506.717,368.603L469.619,368.619C463.391,349.909 446.929,303.422 446.929,303.422C446.929,303.422 444.74,303.398 439.633,303.392L439.762,342.152C439.762,342.152 439.356,345.231 446.453,348.119C453.831,351.122 456.683,352.265 456.313,360.972C455.987,368.661 449.854,368.768 449.854,368.768C435.678,368.665 414.358,368.861 393.569,368.483C393.569,368.483 388.85,356.325 394.152,351.464C399.455,346.604 401.403,350.11 401.403,343.323Z"/>
        </clipPath>
        <g clip-path="url(#_clip3)">
            <path id="R-Orsa-In" serif:id="R Orsa In" d="M439.234,284.932L438.819,246.265C438.819,246.265 456.705,244.558 458.508,267.022C460.271,288.976 439.234,284.932 439.234,284.932Z" style="fill:white;stroke:black;stroke-width:0.87px;"/>
        </g>
        <path d="M401.403,343.323C401.403,336.536 401.314,251.328 401.314,251.328C401.314,251.328 402.159,244.334 391.729,244.232L391.738,225.822L458.814,225.915C458.814,225.915 468.854,225.901 476.202,230.125C500.118,243.872 494.892,274.793 493.453,281.31C490.507,294.647 478.367,298.796 478.367,298.796C478.367,298.796 503.09,343.674 508.902,345.262C522.826,349.068 518.481,367.947 506.717,368.603L469.619,368.619C463.391,349.909 446.929,303.422 446.929,303.422C446.929,303.422 444.74,303.398 439.633,303.392L439.762,342.152C439.762,342.152 439.356,345.231 446.453,348.119C453.831,351.122 456.683,352.265 456.313,360.972C455.987,368.661 449.854,368.768 449.854,368.768C435.678,368.665 414.358,368.861 393.569,368.483C393.569,368.483 388.85,356.325 394.152,351.464C399.455,346.604 401.403,350.11 401.403,343.323Z" style="fill:none;stroke:black;stroke-width:0.87px;"/>
    </g>
    <g id="O-Orsa" serif:id="O Orsa" transform="matrix(0.984734,-0.0151322,0.0152925,0.995168,-3.70678,6.82565)">
        <path d="M334.515,224.693C305.148,223.716 284.449,257.474 282.764,295.49C280.815,339.445 290.381,372.941 331.851,371.987C371.096,371.084 385.367,336.71 382.717,294.022C380.516,258.569 371.082,225.909 334.515,224.693Z" style="fill:rgb(179,1,0);"/>
        <clipPath id="_clip4">
            <path d="M334.515,224.693C305.148,223.716 284.449,257.474 282.764,295.49C280.815,339.445 290.381,372.941 331.851,371.987C371.096,371.084 385.367,336.71 382.717,294.022C380.516,258.569 371.082,225.909 334.515,224.693Z"/>
        </clipPath>
        <g clip-path="url(#_clip4)">
            <g id="O-Orsa-In" serif:id="O Orsa In" transform="matrix(1.17221,0.1722,-0.150138,0.998669,-11.6303,-56.808)">
                <path d="M328.522,248.524C317.696,249.858 313.58,274.565 316.083,296.787C318.192,315.506 320.303,324.686 323.041,332.616C326.353,342.206 332.643,345.067 336.994,344.61C342.724,344.009 353.033,337.664 347.883,291.998C345.015,266.565 337.462,247.422 328.522,248.524Z" style="fill:white;stroke:black;stroke-width:0.77px;"/>
            </g>
        </g>
        <path d="M334.515,224.693C305.148,223.716 284.449,257.474 282.764,295.49C280.815,339.445 290.381,372.941 331.851,371.987C371.096,371.084 385.367,336.71 382.717,294.022C380.516,258.569 371.082,225.909 334.515,224.693Z" style="fill:none;stroke:black;stroke-width:0.84px;"/>
    </g>
    <g id="Vänster">
        <path id="Kontur1" serif:id="Kontur" d="M499.658,175.804C499.658,175.804 444.657,175.702 406.44,196.971L494.402,40.544L464.501,21.744L361.849,204.389C361.849,204.389 315.183,209.392 269.462,189.448L223.834,271.194C223.834,271.194 247.923,283.117 247.234,313.289L247.934,407.514L79.311,707.682C79.311,707.682 73.398,717.856 78.833,730.305C85.697,746.028 171.768,964.123 171.768,964.123C171.768,964.123 175.178,971.969 183.193,965.973C190.407,960.576 201.067,947.846 216.043,925.114C216.043,925.114 312.346,969.471 500,971.372" style="fill:none;stroke:black;stroke-width:1px;stroke-linejoin:round;stroke-miterlimit:1.5;"/>
        <path id="Liten-Vit-5" serif:id="Liten Vit 5" d="M163.768,909.955L178.146,945.634C182.522,955.939 207,914.037 207,914.037C212.964,903.993 217.165,895.618 217.852,890.945C218.913,883.721 216.464,878.463 216.011,877.441C212.708,869.99 212.852,871.378 206.398,857.291C205.078,854.408 204.113,851.746 197.355,861.036L163.768,909.955Z" style="fill:white;stroke:black;stroke-width:0.83px;"/>
        <path id="Liten-Vit-4" serif:id="Liten Vit 4" d="M150.76,877.48L160.251,901.306L195.638,851.297C195.638,851.297 200.566,844.717 197.581,838.865C195.742,835.261 193.674,831.019 192.27,828.281C191.363,826.512 190.197,821.697 184.007,830.042C181.969,832.79 150.76,877.48 150.76,877.48Z" style="fill:white;stroke:black;stroke-width:0.83px;"/>
        <path id="Liten-Vit-3" serif:id="Liten Vit 3" d="M137.149,844.758L145.918,867.11C145.918,867.11 179.337,820.433 181.455,817.827C183.293,815.566 185.025,813.108 182.903,808.56C181.916,806.444 177.921,797.884 176.503,795.548C175.085,793.212 174.676,791.567 171.396,795.771C169.156,798.641 137.149,844.758 137.149,844.758Z" style="fill:white;stroke:black;stroke-width:0.83px;"/>
        <path id="Liten-Vit-2" serif:id="Liten Vit 2" d="M125.104,814.662L132.747,834.492L165.759,789.119C165.759,789.119 170.591,783.346 168.474,778.776C166.598,774.727 164.37,769.756 163.067,767.44C161.846,765.268 159.013,767.15 157.42,769.177C155.827,771.204 125.104,814.662 125.104,814.662Z" style="fill:white;stroke:black;stroke-width:0.83px;"/>
        <path id="Liten-Vit-1" serif:id="Liten Vit 1" d="M111.603,783.031L120.438,804.57L153.117,761.086C153.117,761.086 157.344,756.003 154.498,750.039C150.985,742.678 151.648,742.902 147.82,736.695C145.341,732.674 143.046,734.386 139.535,739.729C133.614,748.743 111.603,783.031 111.603,783.031Z" style="fill:white;stroke:black;stroke-width:0.83px;"/>
        <path id="Lång-Vit" serif:id="Lång Vit" d="M248.174,426.515L248.037,470.325L131.092,687.997C131.092,687.997 129.87,690.279 129.628,693.678C129.317,698.049 131.49,704.057 137.447,714.756C141.962,722.866 138.755,725.499 135.106,731.5C131.512,737.409 107.421,773.513 107.421,773.513L87.927,726.379C87.927,726.379 83.35,717.525 90.274,705.517C95.049,697.236 248.174,426.515 248.174,426.515Z" style="fill:white;stroke:black;stroke-width:0.83px;"/>
        <path id="Vit-Uppe" serif:id="Vit Uppe" d="M468.184,35.827L481.391,44.025L395.959,197.568C395.959,197.568 393.979,203.171 373.222,203.098L468.184,35.827Z" style="fill:white;stroke:black;stroke-width:0.83px;"/>
        <path id="Rundel-Vit" serif:id="Rundel Vit" d="M163.159,748.25C163.159,748.25 142.601,708.637 140.385,704.342C135.422,694.721 134.829,693.086 141.078,682.107C147.901,670.123 167.718,633.014 172.525,626.227C177.333,619.44 186.156,618.479 194.64,619.044C203.123,619.61 229.326,626.203 243.563,641.668C249.884,648.534 251.719,658.314 239.221,665.879C235.211,668.307 225.015,671.702 214.978,681.316C209.868,686.211 202.97,694.823 198.395,700.591C193.327,706.981 163.159,748.25 163.159,748.25Z" style="fill:white;stroke:black;stroke-width:0.83px;"/>
        <g id="Slipsten" transform="matrix(2.6791,0,0,2.78271,-782.08,-742.038)">
            <ellipse cx="452.223" cy="428.601" rx="22.843" ry="22.037" style="fill:rgb(180,1,0);"/>
            <clipPath id="_clip5">
                <ellipse cx="452.223" cy="428.601" rx="22.843" ry="22.037"/>
            </clipPath>
            <g clip-path="url(#_clip5)">
                <g id="Vit-Mitten-Slipring" serif:id="Vit Mitten Slipring" transform="matrix(0.688114,0,0,0.649249,225.205,159.527)">
                    <ellipse cx="329.934" cy="414.442" rx="26.802" ry="27.351" style="fill:rgb(179,1,0);stroke:white;stroke-width:1.05px;"/>
                </g>
                <g id="Vit-Inre-Slipring" serif:id="Vit Inre Slipring" transform="matrix(1.00692,0,0,1.2053,13.5834,-100.502)">
                    <ellipse cx="435.63" cy="438.99" rx="13.358" ry="10.721" style="fill:rgb(179,1,0);stroke:white;stroke-width:0.68px;"/>
                </g>
                <g id="_4-Vit-Båge" serif:id="4 Vit Båge" transform="matrix(0.37326,0,0,0.359362,291.919,266.66)">
                    <path d="M422.401,457.709C416.996,479.92 402.94,490.136 386.984,493.19C389.868,477.471 399.719,463.137 422.401,457.709Z" style="fill:none;stroke:white;stroke-width:2.08px;"/>
                </g>
                <g id="_3-Vit-Båge" serif:id="3 Vit Båge" transform="matrix(0.37326,0,0,0.359362,291.919,266.66)">
                    <path d="M436.408,457.828C457.031,461.412 468.123,476.144 472.243,493.344C453.919,490.124 440.804,477.621 436.408,457.828Z" style="fill:none;stroke:white;stroke-width:2.08px;"/>
                </g>
                <g id="_2-Vit-Båge" serif:id="2 Vit Båge" transform="matrix(0.37326,0,0,0.359362,291.919,266.66)">
                    <path d="M436.452,443.762C440.504,422.865 454.148,411.908 472.299,407.876C468.575,424.778 458.329,439.161 436.452,443.762Z" style="fill:none;stroke:white;stroke-width:2.08px;"/>
                </g>
                <g id="_1-Vit-Båge" serif:id="1 Vit Båge" transform="matrix(0.37326,0,0,0.359362,291.919,266.66)">
                    <path d="M422.445,443.773C418.304,424.732 405.617,411.423 386.704,408.077C391.46,428.561 404.363,440.455 422.445,443.773Z" style="fill:none;stroke:white;stroke-width:2.08px;"/>
                </g>
                <g id="Vit-Mitten" serif:id="Vit Mitten" transform="matrix(0.37326,0,0,0.359362,291.919,266.66)">
                    <path d="M422.336,443.686C423.136,448.338 423.079,453.111 422.305,457.828C427.247,457.148 432.031,457.199 436.487,457.775C435.781,453.177 435.821,448.378 436.482,443.684C431.812,444.407 426.997,444.405 422.336,443.686Z" style="fill:white;stroke:white;stroke-width:2.08px;"/>
                </g>
            </g>
            <ellipse cx="452.223" cy="428.601" rx="22.843" ry="22.037" style="fill:none;stroke:black;stroke-width:0.87px;"/>
        </g>
    </g>
    <g id="Höger" transform="matrix(-1,0,0,1,1000,0)">
        <path id="kontur" d="M499.658,175.804C499.658,175.804 444.657,175.702 406.44,196.971L494.402,40.544L464.501,21.744L361.849,204.389C361.849,204.389 315.183,209.392 269.462,189.448L223.834,271.194C223.834,271.194 247.923,283.117 247.234,313.289L247.934,407.514L79.311,707.682C79.311,707.682 73.398,717.856 78.833,730.305C85.697,746.028 171.768,964.123 171.768,964.123C171.768,964.123 175.178,971.969 183.193,965.973C190.407,960.576 201.067,947.846 216.043,925.114C216.043,925.114 312.346,969.471 500,971.372" style="fill:none;stroke:black;stroke-width:1px;stroke-linejoin:round;stroke-miterlimit:1.5;"/>
        <path id="Liten-Vit-51" serif:id="Liten Vit 5" d="M163.768,909.955L178.146,945.634C182.522,955.939 207,914.037 207,914.037C212.964,903.993 217.165,895.618 217.852,890.945C218.913,883.721 216.464,878.463 216.011,877.441C212.708,869.99 212.852,871.378 206.398,857.291C205.078,854.408 204.113,851.746 197.355,861.036L163.768,909.955Z" style="fill:white;stroke:black;stroke-width:0.83px;"/>
        <path id="Liten-Vit-41" serif:id="Liten Vit 4" d="M150.76,877.48L160.251,901.306L195.638,851.297C195.638,851.297 200.566,844.717 197.581,838.865C195.742,835.261 193.674,831.019 192.27,828.281C191.363,826.512 190.197,821.697 184.007,830.042C181.969,832.79 150.76,877.48 150.76,877.48Z" style="fill:white;stroke:black;stroke-width:0.83px;"/>
        <path id="Liten-Vit-31" serif:id="Liten Vit 3" d="M137.149,844.758L145.918,867.11C145.918,867.11 179.337,820.433 181.455,817.827C183.293,815.566 185.025,813.108 182.903,808.56C181.916,806.444 177.921,797.884 176.503,795.548C175.085,793.212 174.676,791.567 171.396,795.771C169.156,798.641 137.149,844.758 137.149,844.758Z" style="fill:white;stroke:black;stroke-width:0.83px;"/>
        <path id="Liten-Vit-21" serif:id="Liten Vit 2" d="M125.104,814.662L132.747,834.492L165.759,789.119C165.759,789.119 170.591,783.346 168.474,778.776C166.598,774.727 164.37,769.756 163.067,767.44C161.846,765.268 159.013,767.15 157.42,769.177C155.827,771.204 125.104,814.662 125.104,814.662Z" style="fill:white;stroke:black;stroke-width:0.83px;"/>
        <path id="Liten-Vit-11" serif:id="Liten Vit 1" d="M111.603,783.031L120.438,804.57L153.117,761.086C153.117,761.086 157.344,756.003 154.498,750.039C150.985,742.678 151.648,742.902 147.82,736.695C145.341,732.674 143.046,734.386 139.535,739.729C133.614,748.743 111.603,783.031 111.603,783.031Z" style="fill:white;stroke:black;stroke-width:0.83px;"/>
        <path id="Lång-Vit1" serif:id="Lång Vit" d="M248.174,426.515L248.037,470.325L131.092,687.997C131.092,687.997 129.87,690.279 129.628,693.678C129.317,698.049 131.49,704.057 137.447,714.756C141.962,722.866 138.755,725.499 135.106,731.5C131.512,737.409 107.421,773.513 107.421,773.513L87.927,726.379C87.927,726.379 83.35,717.525 90.274,705.517C95.049,697.236 248.174,426.515 248.174,426.515Z" style="fill:white;stroke:black;stroke-width:0.83px;"/>
        <path id="Vit-Uppe1" serif:id="Vit Uppe" d="M468.184,35.827L481.391,44.025L395.959,197.568C395.959,197.568 393.979,203.171 373.222,203.098L468.184,35.827Z" style="fill:white;stroke:black;stroke-width:0.83px;"/>
        <path id="Rundel-Vit1" serif:id="Rundel Vit" d="M163.159,748.25C163.159,748.25 142.601,708.637 140.385,704.342C135.422,694.721 134.829,693.086 141.078,682.107C147.901,670.123 167.718,633.014 172.525,626.227C177.333,619.44 186.156,618.479 194.64,619.044C203.123,619.61 229.326,626.203 243.563,641.668C249.884,648.534 251.719,658.314 239.221,665.879C235.211,668.307 225.015,671.702 214.978,681.316C209.868,686.211 202.97,694.823 198.395,700.591C193.327,706.981 163.159,748.25 163.159,748.25Z" style="fill:white;stroke:black;stroke-width:0.83px;"/>
        <g id="Slipsten1" serif:id="Slipsten" transform="matrix(2.6791,0,0,2.78271,-782.08,-742.038)">
            <ellipse cx="452.223" cy="428.601" rx="22.843" ry="22.037" style="fill:rgb(180,1,0);"/>
            <clipPath id="_clip6">
                <ellipse cx="452.223" cy="428.601" rx="22.843" ry="22.037"/>
            </clipPath>
            <g clip-path="url(#_clip6)">
                <g id="Vit-Mitten-Slipring1" serif:id="Vit Mitten Slipring" transform="matrix(0.688114,0,0,0.649249,225.205,159.527)">
                    <ellipse cx="329.934" cy="414.442" rx="26.802" ry="27.351" style="fill:rgb(179,1,0);stroke:white;stroke-width:1.05px;"/>
                </g>
                <g id="Vit-Inre-Slipring1" serif:id="Vit Inre Slipring" transform="matrix(1.00692,0,0,1.2053,13.5834,-100.502)">
                    <ellipse cx="435.63" cy="438.99" rx="13.358" ry="10.721" style="fill:rgb(179,1,0);stroke:white;stroke-width:0.68px;"/>
                </g>
                <g id="_4-Vit-Båge1" serif:id="4 Vit Båge" transform="matrix(0.37326,0,0,0.359362,291.919,266.66)">
                    <path d="M422.401,457.709C416.996,479.92 402.94,490.136 386.984,493.19C389.868,477.471 399.719,463.137 422.401,457.709Z" style="fill:none;stroke:white;stroke-width:2.08px;"/>
                </g>
                <g id="_3-Vit-Båge1" serif:id="3 Vit Båge" transform="matrix(0.37326,0,0,0.359362,291.919,266.66)">
                    <path d="M436.408,457.828C457.031,461.412 468.123,476.144 472.243,493.344C453.919,490.124 440.804,477.621 436.408,457.828Z" style="fill:none;stroke:white;stroke-width:2.08px;"/>
                </g>
                <g id="_2-Vit-Båge1" serif:id="2 Vit Båge" transform="matrix(0.37326,0,0,0.359362,291.919,266.66)">
                    <path d="M436.452,443.762C440.504,422.865 454.148,411.908 472.299,407.876C468.575,424.778 458.329,439.161 436.452,443.762Z" style="fill:none;stroke:white;stroke-width:2.08px;"/>
                </g>
                <g id="_1-Vit-Båge1" serif:id="1 Vit Båge" transform="matrix(0.37326,0,0,0.359362,291.919,266.66)">
                    <path d="M422.445,443.773C418.304,424.732 405.617,411.423 386.704,408.077C391.46,428.561 404.363,440.455 422.445,443.773Z" style="fill:none;stroke:white;stroke-width:2.08px;"/>
                </g>
                <g id="Vit-Mitten1" serif:id="Vit Mitten" transform="matrix(0.37326,0,0,0.359362,291.919,266.66)">
                    <path d="M422.336,443.686C423.136,448.338 423.079,453.111 422.305,457.828C427.247,457.148 432.031,457.199 436.487,457.775C435.781,453.177 435.821,448.378 436.482,443.684C431.812,444.407 426.997,444.405 422.336,443.686Z" style="fill:white;stroke:white;stroke-width:2.08px;"/>
                </g>
            </g>
            <ellipse cx="452.223" cy="428.601" rx="22.843" ry="22.037" style="fill:none;stroke:black;stroke-width:0.87px;"/>
        </g>
    </g>
    <g id="Slipsten2" serif:id="Slipsten" transform="matrix(2.6791,0,0,2.78271,-711.552,-609.671)">
        <ellipse cx="452.223" cy="428.601" rx="22.843" ry="22.037" style="fill:rgb(180,1,0);"/>
        <clipPath id="_clip7">
            <ellipse cx="452.223" cy="428.601" rx="22.843" ry="22.037"/>
        </clipPath>
        <g clip-path="url(#_clip7)">
            <g id="Vit-Mitten-Slipring2" serif:id="Vit Mitten Slipring" transform="matrix(0.688114,0,0,0.649249,225.205,159.527)">
                <ellipse cx="329.934" cy="414.442" rx="26.802" ry="27.351" style="fill:rgb(179,1,0);stroke:white;stroke-width:1.05px;"/>
            </g>
            <g id="Vit-Inre-Slipring2" serif:id="Vit Inre Slipring" transform="matrix(1.00692,0,0,1.2053,13.5834,-100.502)">
                <ellipse cx="435.63" cy="438.99" rx="13.358" ry="10.721" style="fill:rgb(179,1,0);stroke:white;stroke-width:0.68px;"/>
            </g>
            <g id="_4-Vit-Båge2" serif:id="4 Vit Båge" transform="matrix(0.37326,0,0,0.359362,291.919,266.66)">
                <path d="M422.401,457.709C416.996,479.92 402.94,490.136 386.984,493.19C389.868,477.471 399.719,463.137 422.401,457.709Z" style="fill:none;stroke:white;stroke-width:2.08px;"/>
            </g>
            <g id="_3-Vit-Båge2" serif:id="3 Vit Båge" transform="matrix(0.37326,0,0,0.359362,291.919,266.66)">
                <path d="M436.408,457.828C457.031,461.412 468.123,476.144 472.243,493.344C453.919,490.124 440.804,477.621 436.408,457.828Z" style="fill:none;stroke:white;stroke-width:2.08px;"/>
            </g>
            <g id="_2-Vit-Båge2" serif:id="2 Vit Båge" transform="matrix(0.37326,0,0,0.359362,291.919,266.66)">
                <path d="M436.452,443.762C440.504,422.865 454.148,411.908 472.299,407.876C468.575,424.778 458.329,439.161 436.452,443.762Z" style="fill:none;stroke:white;stroke-width:2.08px;"/>
            </g>
            <g id="_1-Vit-Båge2" serif:id="1 Vit Båge" transform="matrix(0.37326,0,0,0.359362,291.919,266.66)">
                <path d="M422.445,443.773C418.304,424.732 405.617,411.423 386.704,408.077C391.46,428.561 404.363,440.455 422.445,443.773Z" style="fill:none;stroke:white;stroke-width:2.08px;"/>
            </g>
            <g id="Vit-Mitten2" serif:id="Vit Mitten" transform="matrix(0.37326,0,0,0.359362,291.919,266.66)">
                <path d="M422.336,443.686C423.136,448.338 423.079,453.111 422.305,457.828C427.247,457.148 432.031,457.199 436.487,457.775C435.781,453.177 435.821,448.378 436.482,443.684C431.812,444.407 426.997,444.405 422.336,443.686Z" style="fill:white;stroke:white;stroke-width:2.08px;"/>
            </g>
        </g>
        <ellipse cx="452.223" cy="428.601" rx="22.843" ry="22.037" style="fill:none;stroke:black;stroke-width:0.87px;"/>
    </g>
</svg>
